<?xml version="1.0" encoding="UTF-8" standalone="no"?>
<svg
   xmlns:dc="http://purl.org/dc/elements/1.1/"
   xmlns:cc="http://creativecommons.org/ns#"
   xmlns:rdf="http://www.w3.org/1999/02/22-rdf-syntax-ns#"
   xmlns:svg="http://www.w3.org/2000/svg"
   xmlns="http://www.w3.org/2000/svg"
   xmlns:sodipodi="http://sodipodi.sourceforge.net/DTD/sodipodi-0.dtd"
   xmlns:inkscape="http://www.inkscape.org/namespaces/inkscape"
   viewBox="0 0 32 32"
   version="1.1"
   id="svg17"
   sodipodi:docname="notifications.svg"
   inkscape:version="1.0.1 (3bc2e813f5, 2020-09-07)">
  <metadata
     id="metadata21">
    <rdf:RDF>
      <cc:Work
         rdf:about="">
        <dc:format>image/svg+xml</dc:format>
        <dc:type
           rdf:resource="http://purl.org/dc/dcmitype/StillImage" />
        <dc:title></dc:title>
      </cc:Work>
    </rdf:RDF>
  </metadata>
  <sodipodi:namedview
     pagecolor="#ffffff"
     bordercolor="#666666"
     borderopacity="1"
     objecttolerance="10"
     gridtolerance="10"
     guidetolerance="10"
     inkscape:pageopacity="0"
     inkscape:pageshadow="2"
     inkscape:window-width="1920"
     inkscape:window-height="1017"
     id="namedview19"
     showgrid="false"
     inkscape:zoom="2.3975339"
     inkscape:cx="-60.377456"
     inkscape:cy="74.614171"
     inkscape:window-x="1072"
     inkscape:window-y="593"
     inkscape:window-maximized="1"
     inkscape:current-layer="svg17" />
  <defs
     id="defs4">
    <style
       id="style2">.cls-1{fill:#101820;}</style>
  </defs>
  <g
     data-name="Layer 24"
     id="Layer_24"
     style="fill:#5f6368;fill-opacity:1">
    <path
       class="cls-1"
       d="M26,30a1,1,0,0,1-.62-.22L18.15,24H4a3,3,0,0,1-3-3V5A3,3,0,0,1,4,2H28a3,3,0,0,1,3,3V21a3,3,0,0,1-3,3H27v5a1,1,0,0,1-.57.9A.91.91,0,0,1,26,30ZM4,4A1,1,0,0,0,3,5V21a1,1,0,0,0,1,1H18.5a1,1,0,0,1,.63.22L25,26.92V23a1,1,0,0,1,1-1h2a1,1,0,0,0,1-1V5a1,1,0,0,0-1-1Z"
       id="path8"
       style="fill:#5f6368;fill-opacity:1" />
    <rect
       class="cls-1"
       height="2"
       width="2"
       x="15"
       y="12"
       id="rect10"
       style="fill:#5f6368;fill-opacity:1" />
    <rect
       class="cls-1"
       height="2"
       width="2"
       x="8"
       y="12"
       id="rect12"
       style="fill:#5f6368;fill-opacity:1" />
    <rect
       class="cls-1"
       height="2"
       width="2"
       x="22"
       y="12"
       id="rect14"
       style="fill:#5f6368;fill-opacity:1" />
  </g>
</svg>
