<?xml version="1.0" encoding="UTF-8" standalone="no"?>
<svg
   xmlns:dc="http://purl.org/dc/elements/1.1/"
   xmlns:cc="http://creativecommons.org/ns#"
   xmlns:rdf="http://www.w3.org/1999/02/22-rdf-syntax-ns#"
   xmlns:svg="http://www.w3.org/2000/svg"
   xmlns="http://www.w3.org/2000/svg"
   xmlns:sodipodi="http://sodipodi.sourceforge.net/DTD/sodipodi-0.dtd"
   xmlns:inkscape="http://www.inkscape.org/namespaces/inkscape"
   sodipodi:docname="PR-DC_favicon_black.svg"
   inkscape:version="1.0.2-2 (e86c870879, 2021-01-15)"
   id="svg8"
   version="1.1"
   viewBox="0 0 100 100"
   height="100mm"
   width="100mm"
   inkscape:export-filename="Z:\PRDC\BREND\_Logo\PR-DC_favicon.png"
   inkscape:export-xdpi="130.048"
   inkscape:export-ydpi="130.048">
  <defs
     id="defs2" />
  <sodipodi:namedview
     inkscape:guide-bbox="true"
     showguides="true"
     inkscape:window-maximized="1"
     inkscape:window-y="-8"
     inkscape:window-x="-8"
     inkscape:window-height="1857"
     inkscape:window-width="1080"
     showgrid="false"
     inkscape:document-rotation="0"
     inkscape:current-layer="layer1"
     inkscape:document-units="mm"
     inkscape:cy="106.87934"
     inkscape:cx="330.74936"
     inkscape:zoom="0.7"
     inkscape:pageshadow="2"
     inkscape:pageopacity="0.0"
     borderopacity="1.0"
     bordercolor="#666666"
     pagecolor="#ffffff"
     id="base" />
  <metadata
     id="metadata5">
    <rdf:RDF>
      <cc:Work
         rdf:about="">
        <dc:format>image/svg+xml</dc:format>
        <dc:type
           rdf:resource="http://purl.org/dc/dcmitype/StillImage" />
        <dc:title />
      </cc:Work>
    </rdf:RDF>
  </metadata>
  <g
     id="layer1"
     inkscape:groupmode="layer"
     inkscape:label="Layer 1">
    <path
       id="rect849"
       style="fill:#ffffff;fill-opacity:1;stroke-width:1.85511;stroke-linecap:round;stroke-linejoin:round"
       d="m 20.819282,10.819847 19.618097,-0.577696 6.368199,4.939322 3.995773,54.078223 -2.335921,16.397241 H 20.819282 Z"
       sodipodi:nodetypes="ccccccc" />
    <path
       id="rect852"
       style="fill:#fffffd;fill-opacity:1;stroke-width:1.85511;stroke-linecap:round;stroke-linejoin:round"
       d="m 57.228948,10.819847 h 22.476957 l 5.197304,3.273612 5.135053,33.134677 -0.707719,39.07514 H 57.228948 Z"
       sodipodi:nodetypes="ccccccc" />
    <g
       transform="matrix(1.1035117,0,0,1.103928,-6.0431725,-1.0122826)"
       aria-label="P R"
       id="text854-4"
       style="font-style:normal;font-variant:normal;font-weight:normal;font-stretch:normal;font-size:42.3333px;line-height:1.25;font-family:arial;-inkscape-font-specification:arial;letter-spacing:0px;word-spacing:0px;fill:#000000;fill-opacity:1;stroke:#000000;stroke-width:5;stroke-miterlimit:4;stroke-dasharray:none;stroke-opacity:1">
      <g
         id="g931"
         style="opacity:1;fill:#000000;fill-opacity:1">
        <path
           id="path935"
           style="color:#000000;font-style:normal;font-variant:normal;font-weight:bold;font-stretch:normal;font-size:42.3333px;line-height:1.25;font-family:arial;-inkscape-font-specification:'arial Bold';font-variant-ligatures:normal;font-variant-position:normal;font-variant-caps:normal;font-variant-numeric:normal;font-variant-alternates:normal;font-variant-east-asian:normal;font-feature-settings:normal;font-variation-settings:normal;text-indent:0;text-align:start;text-decoration:none;text-decoration-line:none;text-decoration-style:solid;text-decoration-color:#000000;letter-spacing:0px;word-spacing:0px;text-transform:none;writing-mode:lr-tb;direction:ltr;text-orientation:mixed;dominant-baseline:auto;baseline-shift:baseline;text-anchor:start;white-space:normal;shape-padding:0;shape-margin:0;inline-size:0;clip-rule:nonzero;display:inline;overflow:visible;visibility:visible;isolation:auto;mix-blend-mode:normal;color-interpolation:sRGB;color-interpolation-filters:linearRGB;solid-color:#000000;solid-opacity:1;vector-effect:none;fill:#000000;fill-opacity:1;fill-rule:nonzero;stroke:none;stroke-width:18.8976;stroke-linecap:butt;stroke-linejoin:miter;stroke-miterlimit:4;stroke-dasharray:none;stroke-dashoffset:0;stroke-opacity:1;color-rendering:auto;image-rendering:auto;shape-rendering:auto;text-rendering:auto;enable-background:accumulate;stop-color:#000000;stop-opacity:1"
           d="M 82.308594,30.855469 V 159.40625 c -25.202411,32.87851 -41.913749,67.8965 -61.189453,149.85352 l 315.203129,0.23632 c 9.32143,-90.86818 18.27274,-165.84134 27.29687,-245.078121 0,0 -21.94734,0.479658 -43.89453,0.410156 -0.24811,-7.79e-4 -0.51588,6.02e-4 -0.76563,0 -0.91962,-5.54865 -2.86814,-10.812421 -5.8496,-15.517578 -4.30546,-6.794536 -10.61902,-12.007831 -18.07032,-14.734375 -7.66865,-2.879876 -17.1669,-3.720703 -29.91015,-3.720703 h -58.11914 v 41.109375 c -2.16813,0.515208 -4.24369,1.063238 -6.18555,1.65625 -4.136,1.263069 -8.10158,2.573668 -11.93164,3.921875 0.0205,-0.665882 0.0469,-1.328841 0.0469,-2.003907 0,-10.628568 -2.70065,-20.365426 -8.59179,-28.007812 l -0.008,-0.0059 c -5.51697,-7.200919 -13.00477,-12.383857 -21.5625,-14.63086 -6.77368,-1.810751 -15.61491,-2.039062 -29.91211,-2.039062 z m 9.695312,9.654297 h 37.109374 c 14.06249,0 23.22917,0.572915 27.5,1.71875 6.5625,1.718747 12.0573,5.468754 16.48438,11.25 4.42708,5.729161 6.64062,13.151047 6.64062,22.265625 0,7.031244 -1.27604,12.942712 -3.82812,17.734375 -2.55208,4.791665 -5.8073,8.567714 -9.76563,11.328124 -3.90625,2.70833 -7.89063,4.50521 -11.95312,5.39063 -5.52083,1.09374 -13.51564,1.64062 -23.98438,1.64062 h -15.07812 v 43.20313 H 92.003906 Z m 124.703124,0 h 48.67188 c 12.23957,0 21.11979,1.041666 26.64062,3.125 5.57291,2.031246 10.02604,5.677085 13.35938,10.9375 3.33333,5.260412 5,11.276048 5,18.046875 0,8.593743 -2.52605,15.703127 -7.57813,21.328125 -5.05208,5.57291 -12.60417,9.088544 -22.65625,10.546874 5,2.91666 9.11459,6.1198 12.34375,9.60938 3.28125,3.48958 7.6823,9.6875 13.20313,18.59375 l 13.98437,22.34375 h -27.65625 l -16.71875,-24.92188 c -5.93749,-8.90624 -10,-14.50521 -12.1875,-16.79687 -2.1875,-2.34375 -4.50521,-3.9323 -6.95312,-4.76563 -2.44792,-0.88542 -6.32813,-1.32812 -11.64063,-1.32812 h -4.6875 v 47.8125 h -23.125 z m -101.57812,19.375 v 32.5 h 12.65625 c 9.11457,0 15.20833,-0.598962 18.28125,-1.796875 3.07291,-1.197917 5.46875,-3.07292 7.1875,-5.625 1.77083,-2.552084 2.65625,-5.520837 2.65625,-8.90625 0,-4.166665 -1.22396,-7.604169 -3.67188,-10.3125 -2.44791,-2.708332 -5.54688,-4.401043 -9.29687,-5.078125 -2.76042,-0.520832 -8.3073,-0.78125 -16.64063,-0.78125 z m 124.70312,0 v 29.0625 h 17.10938 c 11.09374,0 18.02083,-0.468751 20.78125,-1.40625 2.76041,-0.9375 4.92187,-2.552084 6.48437,-4.84375 1.5625,-2.291664 2.34375,-5.156252 2.34375,-8.59375 0,-3.854164 -1.04167,-6.953127 -3.125,-9.296875 -2.03125,-2.395833 -4.92188,-3.90625 -8.67187,-4.53125 -1.875,-0.260415 -7.50001,-0.390625 -16.875,-0.390625 z m 35.49609,117.498044 c 14.01041,0 25.39064,4.14063 34.14063,12.42188 5.20833,4.89583 9.11458,11.92709 11.71875,21.09375 l -22.89062,5.46875 c -1.35417,-5.9375 -4.19272,-10.625 -8.51563,-14.0625 -4.27083,-3.4375 -9.47917,-5.15625 -15.625,-5.15625 -8.48958,0 -15.39063,3.04688 -20.70313,9.14062 -5.26037,6.09375 -7.89062,15.96355 -7.89062,29.60938 0,14.47915 2.60417,24.79167 7.8125,30.9375 5.20833,6.14583 11.97917,9.21875 20.3125,9.21875 6.14583,0 11.43229,-1.95313 15.85938,-5.85938 4.42703,-3.90624 7.6042,-10.05209 9.53124,-18.4375 L 321.5,258.86719 c -3.4375,12.49999 -9.16667,21.79688 -17.1875,27.89062 -7.96874,6.04166 -18.09901,9.0625 -30.39062,9.0625 -15.20833,0 -27.70839,-5.1823 -37.5,-15.54687 -9.79166,-10.41666 -14.68751,-24.63543 -14.6875,-42.65625 0,-19.06249 4.92188,-33.85418 14.76562,-44.375 9.84374,-10.57291 22.78651,-15.85938 38.82812,-15.85938 z m -182.98437,1.95313 h 42.26563 c 9.53119,0 16.79687,0.72916 21.79687,2.1875 6.71875,1.97916 12.47396,5.49479 17.26563,10.54687 4.79161,5.05208 8.4375,11.25001 10.9375,18.59375 2.49994,7.29166 3.75,16.30209 3.75,27.03125 0,9.42708 -1.17188,17.55209 -3.51563,24.375 -2.86458,8.33333 -6.95313,15.07813 -12.26563,20.23438 -4.01036,3.90625 -9.42708,6.95313 -16.25,9.14062 -5.10411,1.61458 -11.92713,2.42188 -20.46874,2.42188 H 92.34375 Z m 23.125,19.375 v 75.85937 h 17.26563 c 6.45827,0 11.11979,-0.36458 13.98437,-1.09375 3.75,-0.9375 6.84901,-2.52604 9.29687,-4.76562 2.5,-2.23958 4.53126,-5.91146 6.09376,-11.01563 1.56244,-5.15624 2.34375,-12.16146 2.34374,-21.01562 0,-8.85416 -0.7813,-15.65105 -2.34374,-20.39063 -1.5625,-4.73958 -3.75006,-8.4375 -6.5625,-11.09375 -2.8125,-2.65625 -6.38021,-4.45312 -10.70313,-5.39062 -3.22916,-0.72917 -9.55735,-1.09375 -18.98437,-1.09375 z"
           transform="scale(0.26458333)"
           sodipodi:nodetypes="cccccscscsccscscccsccsccssccscccccscsscccccccccsccccccsscsscscccssssccscsccccscsssscccscscscscscscccsccccscccscscsc" />
      </g>
      <g
         id="g937"
         style="opacity:1;fill:#000000;fill-opacity:1" />
    </g>
    <g
       style="font-style:normal;font-variant:normal;font-weight:normal;font-stretch:normal;font-size:65.0608px;line-height:1.25;font-family:arial;-inkscape-font-specification:arial;letter-spacing:0px;word-spacing:0px;fill:#ffffff;fill-opacity:1;stroke:none;stroke-width:0.243977"
       id="text837-2"
       aria-label="p" />
    <g
       aria-label="P"
       id="text899"
       style="font-style:normal;font-variant:normal;font-weight:normal;font-stretch:normal;font-size:77.6111px;line-height:1.25;font-family:arial;-inkscape-font-specification:arial;letter-spacing:0px;word-spacing:0px;fill:#000000;fill-opacity:1;stroke:none;stroke-width:0.264583"
       transform="translate(-1.5119048,1.1339286)" />
    <g
       aria-label="C"
       id="text899-1"
       style="font-style:normal;font-variant:normal;font-weight:normal;font-stretch:normal;font-size:77.611px;line-height:1.25;font-family:arial;-inkscape-font-specification:arial;letter-spacing:0px;word-spacing:0px;fill:#000000;fill-opacity:1;stroke:none;stroke-width:0.264583"
       transform="translate(-1.5119048,1.1339286)" />
    <g
       aria-label=" "
       id="text867"
       style="font-style:normal;font-variant:normal;font-weight:normal;font-stretch:normal;font-size:10.5833px;line-height:1.25;font-family:arial;-inkscape-font-specification:arial;letter-spacing:0px;word-spacing:0px;fill:#000000;fill-opacity:1;stroke:none;stroke-width:0.264583" />
    <g
       aria-label=" "
       id="text887"
       style="font-style:normal;font-variant:normal;font-weight:normal;font-stretch:normal;font-size:10.5833px;line-height:1.25;font-family:arial;-inkscape-font-specification:arial;letter-spacing:0px;word-spacing:0px;fill:#000000;fill-opacity:1;stroke:none;stroke-width:0.264583" />
    <g
       style="font-style:normal;font-variant:normal;font-weight:normal;font-stretch:normal;font-size:77.6111px;line-height:1.25;font-family:arial;-inkscape-font-specification:arial;letter-spacing:0px;word-spacing:0px;fill:#ffffff;fill-opacity:1;stroke:none;stroke-width:0.264583"
       id="text899-5"
       aria-label="P"
       transform="translate(-5.4641883,103.46329)" />
    <g
       style="font-style:normal;font-variant:normal;font-weight:normal;font-stretch:normal;font-size:77.611px;line-height:1.25;font-family:arial;-inkscape-font-specification:arial;letter-spacing:0px;word-spacing:0px;fill:#ffffff;fill-opacity:1;stroke:none;stroke-width:0.264583"
       id="text899-1-0"
       aria-label="C"
       transform="translate(-5.4641883,103.46329)" />
    <g
       style="font-style:normal;font-variant:normal;font-weight:normal;font-stretch:normal;font-size:63.5px;line-height:1.25;font-family:arial;-inkscape-font-specification:arial;letter-spacing:0px;word-spacing:0px;fill:#000000;fill-opacity:1;stroke:none;stroke-width:0.264583"
       id="text897"
       aria-label="P" />
    <g
       aria-label="C"
       id="text851"
       style="font-style:normal;font-variant:normal;font-weight:normal;font-stretch:normal;font-size:63.5px;line-height:1.25;font-family:arial;-inkscape-font-specification:arial;letter-spacing:0px;word-spacing:0px;fill:#000000;fill-opacity:1;stroke:none;stroke-width:0.264583" />
    <g
       style="font-style:normal;font-variant:normal;font-weight:normal;font-stretch:normal;font-size:77.6111px;line-height:1.25;font-family:arial;-inkscape-font-specification:arial;letter-spacing:0px;word-spacing:0px;fill:#000000;fill-opacity:1;stroke:none;stroke-width:0.264583"
       id="text853"
       aria-label="P" />
    <g
       transform="translate(-1.0235496,101.87881)"
       aria-label="P"
       id="text897-7"
       style="font-style:normal;font-variant:normal;font-weight:normal;font-stretch:normal;font-size:63.5px;line-height:1.25;font-family:arial;-inkscape-font-specification:arial;letter-spacing:0px;word-spacing:0px;fill:#ffffff;fill-opacity:1;stroke:none;stroke-width:0.264583" />
    <g
       style="font-style:normal;font-variant:normal;font-weight:normal;font-stretch:normal;font-size:63.5px;line-height:1.25;font-family:arial;-inkscape-font-specification:arial;letter-spacing:0px;word-spacing:0px;fill:#ffffff;fill-opacity:1;stroke:none;stroke-width:0.264583"
       id="text851-7"
       aria-label="C"
       transform="translate(-4.0069031,102.90684)" />
    <g
       aria-label="P R"
       id="text854"
       style="font-style:normal;font-variant:normal;font-weight:normal;font-stretch:normal;font-size:42.3333px;line-height:1.25;font-family:arial;-inkscape-font-specification:arial;letter-spacing:0px;word-spacing:0px;fill:#000000;fill-opacity:1;stroke:none;stroke-width:1.3;stroke-miterlimit:4;stroke-dasharray:none;stroke-opacity:1" />
    <g
       aria-label="D C"
       id="text858"
       style="font-style:normal;font-variant:normal;font-weight:normal;font-stretch:normal;font-size:42.3333px;line-height:1.25;font-family:arial;-inkscape-font-specification:arial;letter-spacing:0px;word-spacing:0px;fill:#ffffff;fill-opacity:1;stroke:none;stroke-width:1.3;stroke-miterlimit:4;stroke-dasharray:none;stroke-opacity:1" />
  </g>
</svg>
